<?xml version="1.0" encoding="utf-8"?>
<svg xmlns="http://www.w3.org/2000/svg" viewBox="0 0 512 482"><path d="M20.8 417.9H.7v-39.1h19c3.7 0 6.7.9 8.9 2.7 2.2 1.7 3.3 4.2 3.3 7.3 0 1.8-.5 3.3-1.3 4.7-.9 1.4-2 2.3-3.2 2.9 2 .5 3.7 1.6 5.2 3.5 1.5 1.8 2.3 4.2 2.3 7 0 3.3-1.3 6.1-3.8 8.2-2.7 1.8-6.1 2.8-10.3 2.8m-10.1-31v6.8h7.5c1.3 0 2.2-.3 2.9-.9.7-.6 1-1.4 1-2.4s-.3-2-1-2.5c-.7-.6-1.7-.9-2.9-.9h-7.5zm0 14.3v8.3h8.1c1.5 0 2.8-.3 3.6-1 .9-.7 1.3-1.7 1.3-3s-.5-2.3-1.4-3.1c-.9-.7-2.1-1.2-3.6-1.2h-8zm123.6 16.7h-10.6l16.5-39.3h9.7l16.4 39.3h-10.8l-3.3-8.3h-14.5l-3.4 8.3zm10.7-26.8l-4 10.5h8.2l-4.2-10.5zm125.9 27.5c-6 0-11.1-1.4-15.1-4.2v-10.3c1.6 1.5 3.8 2.8 6.7 3.8 2.8 1 5.4 1.6 8.1 1.6 4 0 6-1 6-3.1 0-.8-.5-1.6-1.5-2.3-.2-.2-1-.6-2.5-1l-3.6-1-2.9-.8-2.5-1c-1.2-.5-2-.8-2.5-1.3-2-1.5-3.2-2.7-3.8-3.6-.9-1.7-1.4-3.7-1.4-5.8 0-3.7 1.4-6.6 4.2-8.6 2.8-2.1 6.5-3.1 11.3-3.1 4.7 0 9.2 1 13.3 3.2v9.7c-1.7-1-3.8-2-6.2-2.7-2.4-.7-4.7-1.2-6.9-1.2-3.5 0-5.2.8-5.2 2.5 0 .7.6 1.4 1.6 1.8l1.8.6c.5.1 1.3.5 2.7.8 1.4.3 2.3.7 2.8.8 3.7 1.3 6.7 2.8 8.9 4.6 2.1 1.8 3.2 4.4 3.2 7.8 0 3.8-1.5 6.8-4.5 9.2-3.4 2.6-7.3 3.6-12 3.6m122.1 0c-6 0-11.1-1.4-15.1-4.2v-10.3c1.6 1.5 3.8 2.8 6.7 3.8 2.8 1 5.5 1.6 8.1 1.6 4 0 6-1 6-3.1 0-.8-.5-1.6-1.5-2.3-.2-.2-1-.6-2.5-1l-3.6-1-2.9-.8-2.5-1c-1.2-.5-2-.8-2.5-1.3-2-1.5-3.2-2.7-3.8-3.6-.9-1.7-1.4-3.7-1.4-5.8 0-3.7 1.4-6.6 4.2-8.6 2.8-2.1 6.5-3.1 11.3-3.1 4.7 0 9.2 1 13.3 3.2v9.7c-1.7-1-3.8-2-6.2-2.7-2.4-.7-4.7-1.2-6.9-1.2-3.5 0-5.2.8-5.2 2.5 0 .7.6 1.4 1.6 1.8l1.8.6c.5.1 1.3.5 2.7.8 1.4.3 2.3.7 2.8.8 3.7 1.3 6.7 2.8 8.9 4.6 2.1 1.8 3.2 4.4 3.2 7.8 0 3.8-1.5 6.8-4.5 9.2-3.5 2.6-7.3 3.6-12 3.6m108.4-39.9h10v39.1h-10v-39.1zM11.2 479.9c-2.1 0-4-.2-6-.8-1.8-.6-3.5-1.3-4.6-2.2v-3.3c1.2 1 2.7 1.8 4.5 2.5 2 .7 3.9 1 5.9 1 2.3 0 4.2-.5 5.5-1.5 1.5-1 2.2-2.3 2.2-3.9.1-1.5-.6-2.8-2.4-3.9-.3-.2-.9-.6-1.7-.8l-1.8-.6c-.1 0-.2-.1-.5-.1-.2-.1-.5-.1-.8-.2-.2-.1-.6-.2-.9-.2-1.7-.5-2.7-.8-3-.9-.9-.3-1.7-.7-2.5-1-.9-.5-1.6-.9-2.1-1.4-1.2-1.3-1.8-2.8-1.8-4.6 0-2.2.9-3.9 2.7-5.3 1.7-1.4 4.2-2.1 7.3-2.1 3.5 0 6.5.8 8.9 2.4v3.1c-2.9-1.7-5.8-2.7-8.9-2.7-2.2 0-3.9.5-5.1 1.3-1.2.9-1.8 2-1.8 3.3-.1 1 .5 2.2 1.8 3.2.2.2.7.5 1.4.7l1.4.6 1.7.5 1.7.5c1.5.5 2.4.8 2.8.9.8.2 1.6.7 2.5 1.2s1.6 1 2.2 1.5c1.4 1.3 2 2.9 2 5 0 2.5-1 4.6-3.1 6-2.1 1.1-4.6 1.8-7.5 1.8m93.3-.5H84.3v-28.6h19.6v2.8H87.3v9.1h13.6v2.8H87.3v11.2h17.2v2.7zm64.9 0h-3v-28.6h12.8c2.8 0 5 .7 6.6 2.1 1.6 1.4 2.4 3.3 2.4 5.7 0 2.1-.6 3.8-1.7 5.1-1.2 1.4-2.9 2.2-5 2.5l9.2 13.1h-3.6l-9-12.9h-8.8l.1 13zm0-25.8v10.3h9.6c2 0 3.5-.5 4.6-1.3 1-.9 1.6-2.2 1.6-3.8s-.6-2.9-1.6-3.8c-1-.9-2.7-1.4-4.5-1.4h-9.7zm94.9 25.9h-2.8l-12.7-28.7h3.3l10.7 24.6 10.7-24.6h3.3l-12.5 28.7zm74.3-28.7h3v28.6h-3v-28.6zm80.7 29.1c-4.2 0-7.7-1.4-10.5-4.2-2.8-2.8-4.2-6.3-4.2-10.6s1.4-7.8 4.2-10.6c2.8-2.8 6.3-4.3 10.5-4.3 3.1 0 5.8.7 8.1 2.2v3.1c-2.5-1.6-5.2-2.4-8-2.4-3.2 0-6 1.2-8.3 3.5-2.2 2.2-3.3 5.1-3.3 8.5 0 3.5 1.2 6.3 3.3 8.5 2.3 2.3 5.1 3.3 8.4 3.3 3.3 0 6.1-.9 8.5-2.9v3.1c-2.4 2-5.3 2.8-8.7 2.8m91-.5H490v-28.6h19.6v2.8H493v9.1h13.6v2.8H493v11.2h17.3v2.7zm-16.4-152.1H391.5c-10 0-18.1-8.1-18.1-18.1V206.8c0-10 8.1-18.1 18.1-18.1h102.4c10 0 18.1 8.1 18.1 18.1v102.4c0 9.9-8.1 18.1-18.1 18.1M391.6 192.8c-7.7 0-14 6.2-14 14v102.4c0 7.7 6.2 14 14 14H494c7.7 0 14-6.2 14-14V206.8c0-7.7-6.2-14-14-14H391.6zm-84.4 134.5H204.8c-10 0-18.1-8.1-18.1-18.1V206.8c0-10 8.1-18.1 18.1-18.1h102.4c10 0 18.1 8.1 18.1 18.1v102.4c0 9.9-8.2 18.1-18.1 18.1M204.8 192.8c-7.7 0-14 6.2-14 14v102.4c0 7.7 6.2 14 14 14h102.4c7.7 0 14-6.2 14-14V206.8c0-7.7-6.2-14-14-14H204.8zm102.4-52.3H204.8c-10 0-18.1-8.1-18.1-18.1V20.1c0-10 8.1-18.1 18.1-18.1h102.4c10 0 18.1 8.1 18.1 18.1v102.4c0 9.9-8.2 18-18.1 18M204.8 6.2c-7.7 0-14 6.2-14 14v102.4c0 7.7 6.2 14 14 14h102.4c7.7 0 14-6.2 14-14V20.1c0-7.7-6.2-14-14-14H204.8v.1zm-84.4 321.1H18.1c-10 0-18.1-8.1-18.1-18.1V206.8c0-10 8.1-18.1 18.1-18.1h102.4c10 0 18.1 8.1 18.1 18.1v102.4c-.1 9.9-8.2 18.1-18.2 18.1M18.1 192.8c-7.7 0-14 6.2-14 14v102.4c0 7.7 6.2 14 14 14h102.4c7.7 0 14-6.2 14-14V206.8c0-7.7-6.2-14-14-14H18.1zm102.3-52.3H18.1c-10 0-18.1-8.1-18.1-18.1V20.1C0 10.1 8.1 2 18.1 2h102.4c10 0 18.1 8.1 18.1 18.1v102.4c-.1 9.9-8.2 18-18.2 18M18.1 6.2c-7.7 0-14 6.2-14 14v102.4c0 7.7 6.2 14 14 14h102.4c7.7 0 14-6.2 14-14V20.1c0-7.7-6.2-14-14-14H18.1z" fill="#fff"/><path d="M493.9 140.5H391.5c-10 0-18.1-8.1-18.1-18.1V20.1c0-10 8.1-18.1 18.1-18.1h102.4c10 0 18.1 8.1 18.1 18.1v102.4c0 9.9-8.1 18-18.1 18M391.6 6.2c-7.7 0-14 6.2-14 14v102.4c0 7.7 6.2 14 14 14H494c7.7 0 14-6.2 14-14V20.1c0-7.7-6.2-14-14-14H391.6v.1z" fill="#07a674"/></svg>